<svg xmlns="http://www.w3.org/2000/svg" viewBox="0 0 10 10" shape-rendering="crispEdges">
  <!-- Pixel-art rocket — matches CV page sprite style -->
  <!-- Row 0: tip -->
  <rect x="4" y="0" width="1" height="1" fill="#FF3333"/>
  <!-- Row 1: nose -->
  <rect x="3" y="1" width="1" height="1" fill="#FF3333"/>
  <rect x="4" y="1" width="1" height="1" fill="#E0E0E0"/>
  <rect x="5" y="1" width="1" height="1" fill="#FF3333"/>
  <!-- Row 2: upper body -->
  <rect x="3" y="2" width="1" height="1" fill="#E0E0E0"/>
  <rect x="4" y="2" width="1" height="1" fill="#FF3333"/>
  <rect x="5" y="2" width="1" height="1" fill="#E0E0E0"/>
  <!-- Row 3: window -->
  <rect x="3" y="3" width="1" height="1" fill="#D0D0D0"/>
  <rect x="4" y="3" width="1" height="1" fill="#66CCFF"/>
  <rect x="5" y="3" width="1" height="1" fill="#D0D0D0"/>
  <!-- Row 4: body -->
  <rect x="3" y="4" width="1" height="1" fill="#E0E0E0"/>
  <rect x="4" y="4" width="1" height="1" fill="#E0E0E0"/>
  <rect x="5" y="4" width="1" height="1" fill="#E0E0E0"/>
  <!-- Row 5: fins upper -->
  <rect x="2" y="5" width="1" height="1" fill="#FF3333"/>
  <rect x="3" y="5" width="1" height="1" fill="#E0E0E0"/>
  <rect x="4" y="5" width="1" height="1" fill="#E0E0E0"/>
  <rect x="5" y="5" width="1" height="1" fill="#E0E0E0"/>
  <rect x="6" y="6" width="1" height="1" fill="#FF3333"/>
  <!-- Row 6: fins lower -->
  <rect x="2" y="6" width="1" height="1" fill="#FF3333"/>
  <rect x="3" y="6" width="1" height="1" fill="#D0D0D0"/>
  <rect x="4" y="6" width="1" height="1" fill="#E0E0E0"/>
  <rect x="5" y="6" width="1" height="1" fill="#D0D0D0"/>
  <rect x="6" y="5" width="1" height="1" fill="#FF3333"/>
  <!-- Row 7: exhaust -->
  <rect x="3" y="7" width="1" height="1" fill="#FF6600"/>
  <rect x="4" y="7" width="1" height="1" fill="#FF8800"/>
  <rect x="5" y="7" width="1" height="1" fill="#FF6600"/>
  <!-- Row 8: flame -->
  <rect x="4" y="8" width="1" height="1" fill="#FFCC00"/>
  <!-- Row 9: flame sparks -->
  <rect x="3" y="9" width="1" height="1" fill="#FFCC00"/>
  <rect x="5" y="9" width="1" height="1" fill="#FFCC00"/>
</svg>
